HIERARCHY
ROOT Hips
{
    OFFSET 0.000000 0.000000 0.000000
    CHANNELS 6 Xposition Yposition Zposition Zrotation Xrotation Yrotation
    JOINT Spine
    {
        OFFSET -0.000000 7.236184 0.000000
        CHANNELS 3 Zrotation Xrotation Yrotation
        JOINT Spine1
        {
            OFFSET -0.000000 20.420147 0.000000
            CHANNELS 3 Zrotation Xrotation Yrotation
            JOINT Neck
            {
                OFFSET -0.000000 20.336288 1.848754
                CHANNELS 3 Zrotation Xrotation Yrotation
                JOINT Head
                {
                    OFFSET -0.000000 12.354461 -1.764923
                    CHANNELS 3 Zrotation Xrotation Yrotation
                    End Site
                    {
                        OFFSET -0.000000 22.061537 0.000000
                    }
                }
            }
            JOINT LeftShoulder
            {
                OFFSET 3.573296 18.396038 -0.314103
                CHANNELS 3 Zrotation Xrotation Yrotation
                JOINT LeftArm
                {
                    OFFSET 10.880760 0.000000 0.000000
                    CHANNELS 3 Zrotation Xrotation Yrotation
                    JOINT LeftForeArm
                    {
                        OFFSET 27.185530 0.000000 0.000000
                        CHANNELS 3 Zrotation Xrotation Yrotation
                        JOINT LeftHand
                        {
                            OFFSET 27.825975 0.000000 0.000000
                            CHANNELS 3 Zrotation Xrotation Yrotation
                            End Site
                            {
                                OFFSET 13.236923 0.000000 0.000000
                            }
                        }
                    }
                }
            }
            JOINT RightShoulder
            {
                OFFSET -3.474926 18.396038 -0.314103
                CHANNELS 3 Zrotation Xrotation Yrotation
                JOINT RightArm
                {
                    OFFSET -10.880760 0.000000 0.000000
                    CHANNELS 3 Zrotation Xrotation Yrotation
                    JOINT RightForeArm
                    {
                        OFFSET -27.185530 0.000000 0.000000
                        CHANNELS 3 Zrotation Xrotation Yrotation
                        JOINT RightHand
                        {
                            OFFSET -27.825975 0.000000 0.000000
                            CHANNELS 3 Zrotation Xrotation Yrotation
                            End Site
                            {
                                OFFSET -13.236923 0.000000 0.000000
                            }
                        }
                    }
                }
            }
        }
    }
    JOINT LeftUpLeg
    {
        OFFSET 8.824615 0.000000 0.000000
        CHANNELS 3 Zrotation Xrotation Yrotation
        JOINT LeftLeg
        {
            OFFSET -0.000000 -35.111282 0.000000
            CHANNELS 3 Zrotation Xrotation Yrotation
            JOINT LeftFoot
            {
                OFFSET -0.000000 -42.324711 0.000000
                CHANNELS 3 Zrotation Xrotation Yrotation
                JOINT LeftToeBase
                {
                    OFFSET -0.000000 -5.735999 13.236923
                    CHANNELS 3 Zrotation Xrotation Yrotation
                    End Site
                    {
                        OFFSET -0.000000 0.000000 3.529846
                    }
                }
            }
        }
    }
    JOINT RightUpLeg
    {
        OFFSET -8.824615 0.000000 0.000000
        CHANNELS 3 Zrotation Xrotation Yrotation
        JOINT RightLeg
        {
            OFFSET -0.000000 -35.111282 0.000000
            CHANNELS 3 Zrotation Xrotation Yrotation
            JOINT RightFoot
            {
                OFFSET -0.000000 -42.324711 0.000000
                CHANNELS 3 Zrotation Xrotation Yrotation
                JOINT RightToeBase
                {
                    OFFSET -0.000000 -5.735999 13.236923
                    CHANNELS 3 Zrotation Xrotation Yrotation
                    End Site
                    {
                        OFFSET -0.000000 0.000000 3.529846
                    }
                }
            }
        }
    }
}
MOTION
Frames:    10
Frame Time:    0.008333
5.941219    91.062828    90.755508    29.084373    42.334988    -114.295784    3.696074    -3.736874    2.480710    17.871374    3.921810    1.743235    8.528562    23.206015    -21.718369    34.456886    6.846034    -19.405010    10.269433    0.857456    -11.658411    -15.184595    17.792696    -70.519821    25.501921    -25.378311    -119.195183    60.200153    9.179216    -18.975401    4.288739    11.258062    -0.649541    27.446840    10.738141    20.406122    -7.029973    -8.625426    3.272125    -30.674053    -6.914299    -5.559422    49.322578    -23.823034    14.456992    2.916465    16.760946    0.086412    0.754488    -4.475913    -13.453826    2.355494    2.157597    -2.600965    -76.529320    -42.657394    -45.089516    16.880865    57.838387    -8.002665    6.090265    1.953647    -17.894012    2.105175    -4.810138    -2.292589    
5.905535    91.038116    90.790001    28.907471    42.143787    -114.076569    3.789491    -3.598103    2.391851    17.789181    3.716647    1.690944    8.601998    23.436775    -21.772429    34.371517    6.634230    -19.378778    10.148046    1.062998    -11.734870    -15.167747    18.045633    -70.531593    25.658255    -25.171789    -118.716972    60.338840    9.174148    -19.034512    4.474779    11.399302    -0.727065    27.513012    10.970961    20.178648    -7.006564    -8.656044    3.537125    -30.539478    -6.950462    -5.508211    48.990692    -23.863243    14.267709    2.906717    16.783546    0.009292    0.854079    -4.551944    -13.300515    2.301172    2.155857    -2.540995    -77.079445    -43.152054    -45.910461    19.857821    61.363224    -10.350178    6.326200    2.032901    -17.466818    2.113907    -4.953321    -2.302591    
5.863129    91.008575    90.831863    28.726053    41.921791    -113.891312    3.880246    -3.488109    2.304913    17.697741    3.554426    1.633189    8.656356    23.619045    -21.823051    34.285969    6.448711    -19.362762    10.040656    1.244094    -11.777272    -15.129666    18.316614    -70.555908    25.828726    -24.976759    -118.197922    60.468086    9.153342    -19.082394    4.635486    11.541475    -0.799397    27.598131    11.235500    19.968096    -6.988478    -8.689524    3.846255    -30.385845    -6.986471    -5.461200    48.631752    -23.876804    14.055627    2.885846    16.814779    -0.026332    0.956844    -4.638358    -13.133673    2.245209    2.150327    -2.479228    -77.572975    -43.656021    -46.724831    23.525440    64.763832    -13.395000    6.572877    2.078962    -17.016844    2.113225    -5.049214    -2.302181    
5.814296    90.973404    90.881859    28.540031    41.665943    -113.741806    3.965139    -3.408187    2.220206    17.597610    3.439043    1.569712    8.692196    23.747589    -21.870453    34.199142    6.290726    -19.358093    9.949824    1.398227    -11.787597    -15.069833    18.602901    -70.594795    26.014410    -24.794022    -117.635429    60.591782    9.112719    -19.122887    4.768752    11.682714    -0.869239    27.704903    11.532922    19.777462    -6.977678    -8.726832    4.205438    -30.218952    -7.022264    -5.419304    48.243118    -23.863455    13.825803    2.854806    16.854715    -0.024633    1.063288    -4.735126    -12.951125    2.186487    2.138743    -2.414436    -78.009666    -44.171909    -47.535202    28.148001    68.001076    -17.397509    6.825564    2.090742    -16.559494    2.101335    -5.097169    -2.289390    
5.759490    90.932106    90.940216    28.349495    41.375969    -113.628326    4.040854    -3.356593    2.138034    17.490368    3.368552    1.501275    8.711753    23.823610    -21.914913    34.108604    6.158113    -19.364548    9.875226    1.525619    -11.771660    -14.988850    18.899893    -70.646889    26.214785    -24.623768    -117.031578    60.707649    9.052657    -19.158379    4.875024    11.820401    -0.938645    27.833117    11.861289    19.607937    -6.976142    -8.768341    4.616824    -30.044121    -7.057586    -5.382984    47.825027    -23.823366    13.583647    2.813843    16.902046    0.010089    1.173354    -4.840589    -12.752259    2.124684    2.118886    -2.346274    -78.386475    -44.695976    -48.334339    34.062393    70.994995    -22.697674    7.077462    2.068706    -16.111032    2.077389    -5.095881    -2.263299    
5.698516    90.883888    91.007622    28.152292    41.049938    -113.548164    4.106035    -3.328970    2.057413    17.375448    3.335934    1.428199    8.718242    23.854826    -21.957272    34.012600    6.044791    -19.380289    9.814233    1.631534    -11.737108    -14.888182    19.204542    -70.709442    26.429462    -24.461998    -116.385155    60.820034    8.973656    -19.191008    4.959696    11.952989    -1.010375    27.981365    12.219048    19.457001    -6.985179    -8.813620    5.085319    -29.864023    -7.091668    -5.351371    47.373955    -23.756866    13.331404    2.763327    16.955286    0.075799    1.286819    -4.953619    -12.537410    2.058665    2.088144    -2.273495    -78.703461    -45.227268    -49.120945    41.757256    73.668068    -29.784576    7.324822    2.015209    -15.679498    2.041773    -5.046827    -2.224333    
5.630557    90.827660    91.085159    27.944511    40.684395    -113.497704    4.160032    -3.320325    1.976525    17.252222    3.333317    1.350121    8.714231    23.850178    -21.998365    33.907940    5.943430    -19.403275    9.762623    1.721925    -11.691642    -14.771586    19.515574    -70.778244    26.658007    -24.300972    -115.692604    60.931217    8.878370    -19.222128    5.028825    12.080325    -1.088233    28.148413    12.605247    19.322062    -7.005461    -8.861579    5.619058    -29.679605    -7.123077    -5.322975    46.884209    -23.663212    13.069024    2.702140    17.013090    0.169549    1.404045    -5.073665    -12.303241    1.987867    2.043030    -2.195484    -78.959633    -45.766994    -49.896996    51.847622    75.915680    -39.273453    7.565328    1.933953    -15.265919    1.994933    -4.951990    -2.172997    
5.556428    90.764198    91.171906    27.727585    40.285786    -113.474144    4.201755    -3.325617    1.895306    17.123365    3.352700    1.268399    8.702178    23.819231    -22.037893    33.794476    5.848522    -19.430515    9.717917    1.800416    -11.643176    -14.650926    19.824100    -70.847183    26.891420    -24.131983    -114.969208    61.040016    8.773984    -19.252878    5.087170    12.199703    -1.173664    28.328856    13.008486    19.202803    -7.036588    -8.909389    6.212761    -29.495087    -7.149376    -5.296185    46.362823    -23.544317    12.804251    2.631480    17.072268    0.288211    1.521505    -5.197155    -12.056456    1.913047    1.981459    -2.113080    -79.146851    -46.304333    -50.645683    64.498070    77.549515    -51.344696    7.791033    1.833064    -14.876812    1.940517    -4.814830    -2.113293    
5.475317    90.693161    91.268738    27.498535    39.851990    -113.474243    4.230909    -3.340479    1.811689    16.989864    3.387497    1.182153    8.683756    23.768322    -22.075817    33.668232    5.754739    -19.459955    9.677095    1.871638    -11.596209    -14.537707    20.128870    -70.912201    27.125536    -23.941051    -114.214294    61.147446    8.666341    -19.284695    5.139912    12.312766    -1.269357    28.521524    13.426056    19.096418    -7.078403    -8.955184    6.874500    -29.309855    -7.168646    -5.268568    45.805977    -23.399982    12.539736    2.551029    17.131296    0.431804    1.638035    -5.323614    -11.799324    1.834086    1.900268    -2.026153    -79.261200    -46.841877    -51.366760    79.312302    78.435905    -65.603798    8.000332    1.720467    -14.505106    1.882474    -4.640519    -2.049550    
5.387168    90.615189    91.375519    27.257421    39.385830    -113.496033    4.247387    -3.361621    1.724568    16.854149    3.432885    1.091162    8.659235    23.702480    -22.111044    33.527901    5.659301    -19.489254    9.638458    1.937561    -11.554091    -14.443657    20.427507    -70.969406    27.355005    -23.719311    -113.433289    61.253338    8.560640    -19.318340    5.190645    12.419691    -1.375978    28.723175    13.852044    19.001427    -7.130130    -8.996512    7.605318    -29.125732    -7.178539    -5.238152    45.216423    -23.230837    12.282742    2.461742    17.187704    0.599132    1.750825    -5.451578    -11.538467    1.752007    1.797116    -1.935829    -79.295723    -47.376717    -52.048492    94.639091    78.506294    -80.404915    8.187992    1.604330    -14.151087    1.824622    -4.434836    -1.985958    
